# xmcd
#
# Track frame offsets:
#	150
#	19890
#	38443
#	57868
#	74233
#	97558
#	118460
#	138035
#	156485
#	173815
#	191395
#	210159
#
# Disc length: 3007 seconds
#
# Revision: 350948498
# Processed by: cddbd v1.5.2PL0 Copyright (c) Steve Scherf et al.
# Submitted via: EZCDAudioConverter 8.0.2.1
#
DISCID=9d0bbd0c
DTITLE=庄心妍 - 以后的以后 Disc.2
DYEAR=2016
DGENRE=
TTITLE0=错过的花季
TTITLE1=爱要舍得
TTITLE2=爱美无罪
TTITLE3=没谈过恋爱
TTITLE4=一直想着他
TTITLE5=圆圈
TTITLE6=到底爱错在哪里
TTITLE7=他说的谎
TTITLE8=恋爱夏天
TTITLE9=不想管太多
TTITLE10=幸福离我好远
TTITLE11=错爱情歌（摇滚版）
EXTD=
EXTT0=
EXTT1=
EXTT2=
EXTT3=
EXTT4=
EXTT5=
EXTT6=
EXTT7=
EXTT8=
EXTT9=
EXTT10=
EXTT11=
PLAYORDER=
